{"title":"Bahar S01E18-19.720p.HDTV.X264.ARI Greek Subs","uid":15335393,"size":1347935227,"categoryP":"video","categoryS":"tv_shows","magnet":"?xt=urn:btih:fc68d4391d5a21bdc6f1c619c4c7be0b346f2922&amp;dn=Bahar+S01E18-19.720p.HDTV.X264.ARI+Greek+Subs&amp;tr=udp%3A%2F%2Ftracker.leechers-paradise.org%3A6969&amp;tr=udp%3A%2F%2Fzer0day.ch%3A1337&amp;tr=udp%3A%2F%2Fopen.demonii.com%3A1337&amp;tr=udp%3A%2F%2Ftracker.coppersurfer.tk%3A6969&amp;tr=udp%3A%2F%2Fexodus.desync.com%3A6969","seeders":2,"leechers":1,"uploader":"Aris2015","files":1,"time":1468782324,"description":"General\r\nComplete name               : Bahar.S01E18-19.HDTV.720P.X264.ARI.mp4\r\nFormat                      : MPEG-4\r\nFormat profile              : Base Media\r\nCodec ID                    : isom (isom/iso2/avc1/mp41)\r\nFile size                   : 1.26 GiB\r\nDuration                    : 1h 22mn\r\nOverall bit rate mode       : Variable\r\nOverall bit rate            : 2 170 Kbps\r\nMovie name                  : Bahar.S01E18-19.HDTV.720P.X264.ARI\r\nPerformer                   : ARI\r\nWriting application         : Lavf57.37.100\r\nCopyright                   : STAR HDTV\r\n\r\nVideo\r\nID                          : 1\r\nFormat                      : AVC\r\nFormat/Info                 : Advanced Video Codec\r\nFormat profile              :   \r\nFormat settings, CABAC      : Yes\r\nFormat settings, ReFrames   : 5 frames\r\nCodec ID                    : avc1\r\nCodec ID/Info               : Advanced Video Coding\r\nDuration                    : 1h 22mn\r\nBit rate mode               : Variable\r\nBit rate                    : 2 000 Kbps\r\nMaximum bit rate            : 17.5 Mbps\r\nWidth                       : 1 280 pixels\r\nHeight                      : 720 pixels\r\nDisplay aspect ratio        : 16:9\r\nFrame rate mode             : Constant\r\nFrame rate                  : 25.000 fps\r\nColor space                 : YUV\r\nChroma subsampling          : 4:2:0\r\nBit depth                   : 8 bits\r\nScan type                   : Progressive\r\nBits/(Pixel*Frame)          : 0.087\r\nStream size                 : 1.16 GiB (92%)\r\nWriting library             : x264 core 148 r2643\r\n\r\n\r\nAudio\r\nID                          : 2\r\nFormat                      : AAC\r\nFormat/Info                 : Advanced Audio Codec\r\nFormat profile              : LC\r\nCodec ID                    : 40\r\nDuration                    : 1h 22mn\r\nBit rate mode               : Constant\r\nBit rate                    : 160 Kbps\r\nChannel(s)                  : 2 channels\r\nChannel positions           : Front: L R\r\nSampling rate               : 48.0 KHz\r\nFrame rate                  : 46.875 fps (1024 spf)\r\nCompression mode            : Lossy\r\nStream size                 : 94.8 MiB (7%)\r\nLanguage                    : Turkish\r\nDefault                     : Yes\r\n\r\nSCREENSHOT: \nhttp://imgur.com/hkZo6qM","torrent":{"xt":"urn:btih:fc68d4391d5a21bdc6f1c619c4c7be0b346f2922","amp;dn":"Bahar+S01E18-19.720p.HDTV.X264.ARI+Greek+Subs","amp;tr":["udp%3A%2F%2Ftracker.leechers-paradise.org%3A6969","udp%3A%2F%2Fzer0day.ch%3A1337","udp%3A%2F%2Fopen.demonii.com%3A1337","udp%3A%2F%2Ftracker.coppersurfer.tk%3A6969","udp%3A%2F%2Fexodus.desync.com%3A6969"],"infoHash":"fc68d4391d5a21bdc6f1c619c4c7be0b346f2922","infoHashBuffer":{"type":"Buffer","data":[252,104,212,57,29,90,33,189,198,241,198,25,196,199,190,11,52,111,41,34]},"announce":[],"urlList":[]}}